<?xml version="1.0" encoding="UTF-8" standalone="no"?>
<svg
   xmlns:dc="http://purl.org/dc/elements/1.1/"
   xmlns:cc="http://creativecommons.org/ns#"
   xmlns:rdf="http://www.w3.org/1999/02/22-rdf-syntax-ns#"
   xmlns:svg="http://www.w3.org/2000/svg"
   xmlns="http://www.w3.org/2000/svg"
   xmlns:sodipodi="http://sodipodi.sourceforge.net/DTD/sodipodi-0.dtd"
   xmlns:inkscape="http://www.inkscape.org/namespaces/inkscape"
   version="1.1"
   id="svg1144"
   xml:space="preserve"
   width="1248"
   height="1632"
   viewBox="0 0 1248 1632"
   sodipodi:docname="PG13T1.svg"
   inkscape:version="1.0.1 (3bc2e813f5, 2020-09-07)"><metadata
     id="metadata1150"><rdf:RDF><cc:Work
         rdf:about=""><dc:format>image/svg+xml</dc:format><dc:type
           rdf:resource="http://purl.org/dc/dcmitype/StillImage" /><dc:title /></cc:Work></rdf:RDF></metadata><defs
     id="defs1148" /><sodipodi:namedview
     pagecolor="#ffffff"
     bordercolor="#666666"
     borderopacity="1"
     objecttolerance="10"
     gridtolerance="10"
     guidetolerance="10"
     inkscape:pageopacity="0"
     inkscape:pageshadow="2"
     inkscape:window-width="2509"
     inkscape:window-height="1412"
     id="namedview1146"
     showgrid="false"
     inkscape:zoom="0.72703749"
     inkscape:cx="812.42351"
     inkscape:cy="840.22325"
     inkscape:window-x="1971"
     inkscape:window-y="0"
     inkscape:window-maximized="1"
     inkscape:current-layer="g1152"
     inkscape:document-rotation="0" /><g
     id="g1152"
     inkscape:groupmode="layer"
     inkscape:label="PG13T1"
     transform="matrix(1.3333333,0,0,-1.3333333,0,1632)"><path
       d="m -68.802981,533.46502 h 25.577174"
       style="fill:none;stroke:#000000;stroke-width:0.922577;stroke-linecap:butt;stroke-linejoin:miter;stroke-miterlimit:10;stroke-dasharray:none;stroke-opacity:1"
       id="path1174"
       inkscape:export-xdpi="300"
       inkscape:export-ydpi="300" /><path
       d="M -4.8600469,533.46502 H 20.717127"
       style="fill:none;stroke:#000000;stroke-width:0.922577;stroke-linecap:butt;stroke-linejoin:miter;stroke-miterlimit:10;stroke-dasharray:none;stroke-opacity:1"
       id="path1176"
       inkscape:export-xdpi="300"
       inkscape:export-ydpi="300" /><path
       d="M 59.082887,533.46502 H 84.66006"
       style="fill:none;stroke:#000000;stroke-width:0.922577;stroke-linecap:butt;stroke-linejoin:miter;stroke-miterlimit:10;stroke-dasharray:none;stroke-opacity:1"
       id="path1178"
       inkscape:export-xdpi="300"
       inkscape:export-ydpi="300" /><path
       d="m 123.02582,533.46502 h 25.57717"
       style="fill:none;stroke:#000000;stroke-width:0.922577;stroke-linecap:butt;stroke-linejoin:miter;stroke-miterlimit:10;stroke-dasharray:none;stroke-opacity:1"
       id="path1180"
       inkscape:export-xdpi="300"
       inkscape:export-ydpi="300" /><path
       d="m 186.96875,533.46502 h 25.57718"
       style="fill:none;stroke:#000000;stroke-width:0.922577;stroke-linecap:butt;stroke-linejoin:miter;stroke-miterlimit:10;stroke-dasharray:none;stroke-opacity:1"
       id="path1182"
       inkscape:export-xdpi="300"
       inkscape:export-ydpi="300" /><path
       d="m 250.91169,533.46502 h 25.57717"
       style="fill:none;stroke:#000000;stroke-width:0.922577;stroke-linecap:butt;stroke-linejoin:miter;stroke-miterlimit:10;stroke-dasharray:none;stroke-opacity:1"
       id="path1184"
       inkscape:export-xdpi="300"
       inkscape:export-ydpi="300" /><path
       d="M 314.85462,533.46502 H 340.4318"
       style="fill:none;stroke:#000000;stroke-width:0.922577;stroke-linecap:butt;stroke-linejoin:miter;stroke-miterlimit:10;stroke-dasharray:none;stroke-opacity:1"
       id="path1186"
       inkscape:export-xdpi="300"
       inkscape:export-ydpi="300" /><path
       d="m 378.79756,533.46502 h 25.57717"
       style="fill:none;stroke:#000000;stroke-width:0.922577;stroke-linecap:butt;stroke-linejoin:miter;stroke-miterlimit:10;stroke-dasharray:none;stroke-opacity:1"
       id="path1188"
       inkscape:export-xdpi="300"
       inkscape:export-ydpi="300" /><path
       d="m 442.74049,533.46502 h 25.57717"
       style="fill:none;stroke:#000000;stroke-width:0.922577;stroke-linecap:butt;stroke-linejoin:miter;stroke-miterlimit:10;stroke-dasharray:none;stroke-opacity:1"
       id="path1190"
       inkscape:export-xdpi="300"
       inkscape:export-ydpi="300" /><path
       d="M 506.68342,533.46502 H 532.2606"
       style="fill:none;stroke:#000000;stroke-width:0.922577;stroke-linecap:butt;stroke-linejoin:miter;stroke-miterlimit:10;stroke-dasharray:none;stroke-opacity:1"
       id="path1192"
       inkscape:export-xdpi="300"
       inkscape:export-ydpi="300" /><path
       d="m 570.62636,533.46502 h 25.57717"
       style="fill:none;stroke:#000000;stroke-width:0.922577;stroke-linecap:butt;stroke-linejoin:miter;stroke-miterlimit:10;stroke-dasharray:none;stroke-opacity:1"
       id="path1194"
       inkscape:export-xdpi="300"
       inkscape:export-ydpi="300" /><path
       d="m 615.38641,549.82166 v 21.80886"
       style="fill:none;stroke:#000000;stroke-width:0.922577;stroke-linecap:butt;stroke-linejoin:miter;stroke-miterlimit:10;stroke-dasharray:none;stroke-opacity:1"
       id="path1196"
       inkscape:export-xdpi="300"
       inkscape:export-ydpi="300" /><path
       d="m 600.03012,597.79263 -39.79449,25.39539"
       style="fill:none;stroke:#000000;stroke-width:0.922577;stroke-linecap:butt;stroke-linejoin:miter;stroke-miterlimit:10;stroke-dasharray:none;stroke-opacity:1"
       id="path1198"
       inkscape:export-xdpi="300"
       inkscape:export-ydpi="300" /><path
       d="m 539.90378,648.78787 -5.92472,18.85273"
       style="fill:none;stroke:#000000;stroke-width:0.922577;stroke-linecap:butt;stroke-linejoin:miter;stroke-miterlimit:10;stroke-dasharray:none;stroke-opacity:1"
       id="path1200"
       inkscape:export-xdpi="300"
       inkscape:export-ydpi="300" /><path
       d="m 533.97906,699.24641 5.92472,18.85273"
       style="fill:none;stroke:#000000;stroke-width:0.922577;stroke-linecap:butt;stroke-linejoin:miter;stroke-miterlimit:10;stroke-dasharray:none;stroke-opacity:1"
       id="path1202"
       inkscape:export-xdpi="300"
       inkscape:export-ydpi="300" /><path
       d="m 558.43724,745.46244 16.18555,13.80092"
       style="fill:none;stroke:#000000;stroke-width:0.922577;stroke-linecap:butt;stroke-linejoin:miter;stroke-miterlimit:10;stroke-dasharray:none;stroke-opacity:1"
       id="path1204"
       inkscape:export-xdpi="300"
       inkscape:export-ydpi="300" /><path
       d="m 606.71415,775.06626 22.11027,5.05182"
       style="fill:none;stroke:#000000;stroke-width:0.922577;stroke-linecap:butt;stroke-linejoin:miter;stroke-miterlimit:10;stroke-dasharray:none;stroke-opacity:1"
       id="path1206"
       inkscape:export-xdpi="300"
       inkscape:export-ydpi="300" /><path
       d="m 665.89134,780.11808 22.11026,-5.05182"
       style="fill:none;stroke:#000000;stroke-width:0.922577;stroke-linecap:butt;stroke-linejoin:miter;stroke-miterlimit:10;stroke-dasharray:none;stroke-opacity:1"
       id="path1208"
       inkscape:export-xdpi="300"
       inkscape:export-ydpi="300" /><path
       d="m 720.09296,759.26336 16.18556,-13.80092"
       style="fill:none;stroke:#000000;stroke-width:0.922577;stroke-linecap:butt;stroke-linejoin:miter;stroke-miterlimit:10;stroke-dasharray:none;stroke-opacity:1"
       id="path1210"
       inkscape:export-xdpi="300"
       inkscape:export-ydpi="300" /><path
       d="m 754.81198,718.09914 5.92471,-18.85273"
       style="fill:none;stroke:#000000;stroke-width:0.922577;stroke-linecap:butt;stroke-linejoin:miter;stroke-miterlimit:10;stroke-dasharray:none;stroke-opacity:1"
       id="path1212"
       inkscape:export-xdpi="300"
       inkscape:export-ydpi="300" /><path
       d="m 760.73669,667.6406 -5.92471,-18.85273"
       style="fill:none;stroke:#000000;stroke-width:0.922577;stroke-linecap:butt;stroke-linejoin:miter;stroke-miterlimit:10;stroke-dasharray:none;stroke-opacity:1"
       id="path1214"
       inkscape:export-xdpi="300"
       inkscape:export-ydpi="300" /><path
       d="M 734.49012,623.18802 694.68564,597.79263"
       style="fill:none;stroke:#000000;stroke-width:0.922577;stroke-linecap:butt;stroke-linejoin:miter;stroke-miterlimit:10;stroke-dasharray:none;stroke-opacity:1"
       id="path1216"
       inkscape:export-xdpi="300"
       inkscape:export-ydpi="300" /><path
       d="M 679.32934,571.63052 V 549.82166"
       style="fill:none;stroke:#000000;stroke-width:0.922577;stroke-linecap:butt;stroke-linejoin:miter;stroke-miterlimit:10;stroke-dasharray:none;stroke-opacity:1"
       id="path1218"
       inkscape:export-xdpi="300"
       inkscape:export-ydpi="300" /><path
       d="M 698.51222,533.46502 H 724.0894"
       style="fill:none;stroke:#000000;stroke-width:0.922577;stroke-linecap:butt;stroke-linejoin:miter;stroke-miterlimit:10;stroke-dasharray:none;stroke-opacity:1"
       id="path1220"
       inkscape:export-xdpi="300"
       inkscape:export-ydpi="300" /><path
       d="m 762.45516,533.46502 h 25.57717"
       style="fill:none;stroke:#000000;stroke-width:0.922577;stroke-linecap:butt;stroke-linejoin:miter;stroke-miterlimit:10;stroke-dasharray:none;stroke-opacity:1"
       id="path1222"
       inkscape:export-xdpi="300"
       inkscape:export-ydpi="300" /><path
       d="m 826.39809,533.46502 h 25.57718"
       style="fill:none;stroke:#000000;stroke-width:0.922577;stroke-linecap:butt;stroke-linejoin:miter;stroke-miterlimit:10;stroke-dasharray:none;stroke-opacity:1"
       id="path1224"
       inkscape:export-xdpi="300"
       inkscape:export-ydpi="300" /><path
       d="M 890.34103,533.46502 H 915.9182"
       style="fill:none;stroke:#000000;stroke-width:0.922577;stroke-linecap:butt;stroke-linejoin:miter;stroke-miterlimit:10;stroke-dasharray:none;stroke-opacity:1"
       id="path1226"
       inkscape:export-xdpi="300"
       inkscape:export-ydpi="300" /><path
       d="m 954.28396,533.46502 h 25.57717"
       style="fill:none;stroke:#000000;stroke-width:0.922577;stroke-linecap:butt;stroke-linejoin:miter;stroke-miterlimit:10;stroke-dasharray:none;stroke-opacity:1"
       id="path1228"
       inkscape:export-xdpi="300"
       inkscape:export-ydpi="300" /><path
       d="m 1018.2269,533.46502 h 25.5772"
       style="fill:none;stroke:#000000;stroke-width:0.922577;stroke-linecap:butt;stroke-linejoin:miter;stroke-miterlimit:10;stroke-dasharray:none;stroke-opacity:1"
       id="path1230"
       inkscape:export-xdpi="300"
       inkscape:export-ydpi="300" /><path
       d="m 634.56929,533.46502 h 25.57717"
       style="fill:none;stroke:#ff0000;stroke-width:1.84515;stroke-linecap:butt;stroke-linejoin:miter;stroke-miterlimit:10;stroke-dasharray:none;stroke-opacity:1"
       id="path1232"
       inkscape:export-xdpi="300"
       inkscape:export-ydpi="300" /><path
       d="m 634.56929,587.98716 h 25.57717"
       style="fill:none;stroke:#ff0000;stroke-width:1.84515;stroke-linecap:butt;stroke-linejoin:miter;stroke-miterlimit:10;stroke-dasharray:none;stroke-opacity:1"
       id="path1234"
       inkscape:export-xdpi="300"
       inkscape:export-ydpi="300" /><path
       d="m -76.94971,535.58627 h -10.934242 v -2.51483 h 7.984874 v -0.61338 c 0,-3.98693 -3.452918,-6.86979 -8.236649,-6.86979 -2.661625,0 -5.071474,0.82806 -6.618094,2.26949 -1.726459,1.59477 -2.769528,4.26295 -2.769528,7.02313 0,5.4897 3.668726,9.10861 9.207782,9.10861 3.992437,0 6.869869,-1.74812 7.589227,-4.63098 h 3.416951 c -0.935165,4.53897 -4.96357,7.14581 -10.97021,7.14581 -3.201143,0 -5.790832,-0.70538 -7.841002,-2.14681 -3.057271,-2.14681 -4.747759,-5.61237 -4.747759,-9.62997 0,-6.86979 4.927599,-11.65411 12.013275,-11.65411 3.560822,0 6.366318,1.13474 8.956007,3.55757 l 0.827262,-2.97486 h 2.122106 z"
       id="path2410"
       style="font-variant:normal;font-weight:normal;font-size:36px;font-family:Helvetica;-inkscape-font-specification:Helvetica;writing-mode:lr-tb;fill:#000000;fill-opacity:1;fill-rule:nonzero;stroke:none;stroke-width:0.922577"
       inkscape:export-xdpi="300"
       inkscape:export-ydpi="300" /><path
       d="m -14.193717,538.77582 c -1.043069,4.90699 -4.352116,7.29915 -10.10698,7.29915 -3.524854,0 -6.366318,-0.95073 -8.308585,-2.79085 -2.373881,-2.20815 -3.668726,-5.3977 -3.668726,-9.0166 0,-3.68025 1.330813,-6.83912 3.77663,-9.0166 2.05017,-1.77879 4.639859,-2.60684 8.056809,-2.60684 6.402287,0 9.999077,2.94419 10.790371,8.86325 h -3.452919 c -0.287743,-1.53343 -0.647422,-2.57617 -1.186941,-3.46556 -1.079037,-1.84012 -3.309046,-2.88286 -6.114543,-2.88286 -5.215345,0 -8.524392,3.55757 -8.524392,9.13928 0,5.73504 3.129207,9.26194 8.236649,9.26194 2.122106,0 4.100341,-0.52136 5.179378,-1.41076 0.971133,-0.76671 1.510652,-1.68677 1.906298,-3.37355 z"
       id="path2412"
       style="font-variant:normal;font-weight:normal;font-size:36px;font-family:Helvetica;-inkscape-font-specification:Helvetica;writing-mode:lr-tb;fill:#000000;fill-opacity:1;fill-rule:nonzero;stroke:none;stroke-width:0.922577"
       inkscape:export-xdpi="300"
       inkscape:export-ydpi="300" /><path
       d="m 43.778545,529.05384 2.697593,-6.71645 h 3.740661 l -9.207782,22.35749 h -4.316148 l -9.351654,-22.35749 h 3.560822 l 2.769528,6.71645 z M 42.84338,531.446 h -8.344553 l 4.316148,10.18201 z"
       id="path2414"
       style="font-variant:normal;font-weight:normal;font-size:36px;font-family:Helvetica;-inkscape-font-specification:Helvetica;writing-mode:lr-tb;fill:#000000;fill-opacity:1;fill-rule:nonzero;stroke:none;stroke-width:0.922577"
       inkscape:export-xdpi="300"
       inkscape:export-ydpi="300" /><path
       d="m 104.41243,541.32132 h 8.59633 v 2.51483 H 92.435121 v -2.51483 h 8.632299 v -19.84265 h 3.34501 z"
       id="path2416"
       style="font-variant:normal;font-weight:normal;font-size:36px;font-family:Helvetica;-inkscape-font-specification:Helvetica;writing-mode:lr-tb;fill:#000000;fill-opacity:1;fill-rule:nonzero;stroke:none;stroke-width:0.922577"
       inkscape:export-xdpi="300"
       inkscape:export-ydpi="300" /><path
       d="m 177.63508,538.77582 c -1.04306,4.90699 -4.35211,7.29915 -10.10698,7.29915 -3.52485,0 -6.36631,-0.95073 -8.30858,-2.79085 -2.37388,-2.20815 -3.66873,-5.3977 -3.66873,-9.0166 0,-3.68025 1.33082,-6.83912 3.77663,-9.0166 2.05017,-1.77879 4.63986,-2.60684 8.05681,-2.60684 6.40229,0 9.99908,2.94419 10.79037,8.86325 h -3.45292 c -0.28774,-1.53343 -0.64742,-2.57617 -1.18694,-3.46556 -1.07903,-1.84012 -3.30904,-2.88286 -6.11454,-2.88286 -5.21534,0 -8.52439,3.55757 -8.52439,9.13928 0,5.73504 3.12921,9.26194 8.23665,9.26194 2.1221,0 4.10034,-0.52136 5.17938,-1.41076 0.97113,-0.76671 1.51065,-1.68677 1.90629,-3.37355 z"
       id="path2418"
       style="font-variant:normal;font-weight:normal;font-size:36px;font-family:Helvetica;-inkscape-font-specification:Helvetica;writing-mode:lr-tb;fill:#000000;fill-opacity:1;fill-rule:nonzero;stroke:none;stroke-width:0.922577"
       inkscape:export-xdpi="300"
       inkscape:export-ydpi="300" /><path
       d="m 235.60735,529.05384 2.69759,-6.71645 h 3.74066 l -9.20778,22.35749 h -4.31615 l -9.35165,-22.35749 h 3.56082 l 2.76953,6.71645 z m -0.93517,2.39216 h -8.34455 l 4.31615,10.18201 z"
       id="path2420"
       style="font-variant:normal;font-weight:normal;font-size:36px;font-family:Helvetica;-inkscape-font-specification:Helvetica;writing-mode:lr-tb;fill:#000000;fill-opacity:1;fill-rule:nonzero;stroke:none;stroke-width:0.922577"
       inkscape:export-xdpi="300"
       inkscape:export-ydpi="300" /><path
       d="m 305.52095,538.77582 c -1.04307,4.90699 -4.35211,7.29915 -10.10698,7.29915 -3.52485,0 -6.36632,-0.95073 -8.30858,-2.79085 -2.37388,-2.20815 -3.66873,-5.3977 -3.66873,-9.0166 0,-3.68025 1.33081,-6.83912 3.77663,-9.0166 2.05017,-1.77879 4.63986,-2.60684 8.05681,-2.60684 6.40229,0 9.99908,2.94419 10.79037,8.86325 h -3.45292 c -0.28774,-1.53343 -0.64742,-2.57617 -1.18694,-3.46556 -1.07904,-1.84012 -3.30905,-2.88286 -6.11454,-2.88286 -5.21535,0 -8.52439,3.55757 -8.52439,9.13928 0,5.73504 3.1292,9.26194 8.23664,9.26194 2.12211,0 4.10035,-0.52136 5.17938,-1.41076 0.97114,-0.76671 1.51065,-1.68677 1.9063,-3.37355 z"
       id="path2422"
       style="font-variant:normal;font-weight:normal;font-size:36px;font-family:Helvetica;-inkscape-font-specification:Helvetica;writing-mode:lr-tb;fill:#000000;fill-opacity:1;fill-rule:nonzero;stroke:none;stroke-width:0.922577"
       inkscape:export-xdpi="300"
       inkscape:export-ydpi="300" /><path
       d="m 363.49321,529.05384 2.6976,-6.71645 h 3.74066 l -9.20778,22.35749 h -4.31615 l -9.35166,-22.35749 h 3.56083 l 2.76952,6.71645 z m -0.93516,2.39216 h -8.34455 l 4.31614,10.18201 z"
       id="path2424"
       style="font-variant:normal;font-weight:normal;font-size:36px;font-family:Helvetica;-inkscape-font-specification:Helvetica;writing-mode:lr-tb;fill:#000000;fill-opacity:1;fill-rule:nonzero;stroke:none;stroke-width:0.922577"
       inkscape:export-xdpi="300"
       inkscape:export-ydpi="300" /><path
       d="m 433.40682,538.77582 c -1.04307,4.90699 -4.35212,7.29915 -10.10698,7.29915 -3.52485,0 -6.36632,-0.95073 -8.30859,-2.79085 -2.37388,-2.20815 -3.66872,-5.3977 -3.66872,-9.0166 0,-3.68025 1.33081,-6.83912 3.77663,-9.0166 2.05017,-1.77879 4.63986,-2.60684 8.05681,-2.60684 6.40228,0 9.99907,2.94419 10.79037,8.86325 h -3.45292 c -0.28774,-1.53343 -0.64742,-2.57617 -1.18694,-3.46556 -1.07904,-1.84012 -3.30905,-2.88286 -6.11454,-2.88286 -5.21535,0 -8.5244,3.55757 -8.5244,9.13928 0,5.73504 3.12921,9.26194 8.23665,9.26194 2.12211,0 4.10034,-0.52136 5.17938,-1.41076 0.97113,-0.76671 1.51065,-1.68677 1.9063,-3.37355 z"
       id="path2426"
       style="font-variant:normal;font-weight:normal;font-size:36px;font-family:Helvetica;-inkscape-font-specification:Helvetica;writing-mode:lr-tb;fill:#000000;fill-opacity:1;fill-rule:nonzero;stroke:none;stroke-width:0.922577"
       inkscape:export-xdpi="300"
       inkscape:export-ydpi="300" /><path
       d="m 491.37908,529.05384 2.69759,-6.71645 h 3.74067 l -9.20779,22.35749 h -4.31614 l -9.35166,-22.35749 h 3.56082 l 2.76953,6.71645 z m -0.93516,2.39216 h -8.34456 l 4.31615,10.18201 z"
       id="path2428"
       style="font-variant:normal;font-weight:normal;font-size:36px;font-family:Helvetica;-inkscape-font-specification:Helvetica;writing-mode:lr-tb;fill:#000000;fill-opacity:1;fill-rule:nonzero;stroke:none;stroke-width:0.922577"
       inkscape:export-xdpi="300"
       inkscape:export-ydpi="300" /><path
       d="m 561.29269,538.77582 c -1.04307,4.90699 -4.35212,7.29915 -10.10698,7.29915 -3.52486,0 -6.36632,-0.95073 -8.30859,-2.79085 -2.37388,-2.20815 -3.66872,-5.3977 -3.66872,-9.0166 0,-3.68025 1.33081,-6.83912 3.77663,-9.0166 2.05017,-1.77879 4.63985,-2.60684 8.05681,-2.60684 6.40228,0 9.99907,2.94419 10.79037,8.86325 h -3.45292 c -0.28775,-1.53343 -0.64743,-2.57617 -1.18694,-3.46556 -1.07904,-1.84012 -3.30905,-2.88286 -6.11455,-2.88286 -5.21534,0 -8.52439,3.55757 -8.52439,9.13928 0,5.73504 3.12921,9.26194 8.23665,9.26194 2.12211,0 4.10034,-0.52136 5.17938,-1.41076 0.97113,-0.76671 1.51065,-1.68677 1.9063,-3.37355 z"
       id="path2430"
       style="font-variant:normal;font-weight:normal;font-size:36px;font-family:Helvetica;-inkscape-font-specification:Helvetica;writing-mode:lr-tb;fill:#000000;fill-opacity:1;fill-rule:nonzero;stroke:none;stroke-width:0.922577"
       inkscape:export-xdpi="300"
       inkscape:export-ydpi="300" /><path
       d="m 625.23564,538.77582 c -1.04307,4.90699 -4.35212,7.29915 -10.10698,7.29915 -3.52485,0 -6.36632,-0.95073 -8.30858,-2.79085 -2.37389,-2.20815 -3.66873,-5.3977 -3.66873,-9.0166 0,-3.68025 1.33081,-6.83912 3.77663,-9.0166 2.05017,-1.77879 4.63986,-2.60684 8.05681,-2.60684 6.40229,0 9.99908,2.94419 10.79037,8.86325 h -3.45292 c -0.28774,-1.53343 -0.64742,-2.57617 -1.18694,-3.46556 -1.07904,-1.84012 -3.30905,-2.88286 -6.11454,-2.88286 -5.21535,0 -8.5244,3.55757 -8.5244,9.13928 0,5.73504 3.12921,9.26194 8.23665,9.26194 2.12211,0 4.10034,-0.52136 5.17938,-1.41076 0.97113,-0.76671 1.51065,-1.68677 1.9063,-3.37355 z"
       id="path2432"
       style="font-variant:normal;font-weight:normal;font-size:36px;font-family:Helvetica;-inkscape-font-specification:Helvetica;writing-mode:lr-tb;fill:#000000;fill-opacity:1;fill-rule:nonzero;stroke:none;stroke-width:0.922577"
       inkscape:export-xdpi="300"
       inkscape:export-ydpi="300" /><path
       d="m 626.42258,590.10846 h -10.93424 v -2.51483 h 7.98487 v -0.61337 c 0,-3.98694 -3.45291,-6.86979 -8.23665,-6.86979 -2.66162,0 -5.07147,0.82805 -6.61809,2.26948 -1.72646,1.59477 -2.76953,4.26295 -2.76953,7.02313 0,5.4897 3.66873,9.10861 9.20778,9.10861 3.99244,0 6.86987,-1.74812 7.58923,-4.63098 h 3.41695 c -0.93516,4.53897 -4.96357,7.14581 -10.97021,7.14581 -3.20114,0 -5.79083,-0.70538 -7.841,-2.14681 -3.05727,-2.14681 -4.74776,-5.61237 -4.74776,-9.62997 0,-6.86979 4.9276,-11.65411 12.01328,-11.65411 3.56082,0 6.36631,1.13474 8.956,3.55757 l 0.82727,-2.97486 h 2.1221 z"
       id="path2434"
       style="font-variant:normal;font-weight:normal;font-size:36px;font-family:Helvetica;-inkscape-font-specification:Helvetica;writing-mode:lr-tb;fill:#000000;fill-opacity:1;fill-rule:nonzero;stroke:none;stroke-width:0.922577"
       inkscape:export-xdpi="300"
       inkscape:export-ydpi="300" /><path
       d="m 548.74782,628.58232 2.6976,-6.71645 h 3.74066 l -9.20779,22.35749 h -4.31614 l -9.35166,-22.35749 h 3.56082 l 2.76953,6.71645 z m -0.93516,2.39216 h -8.34456 l 4.31615,10.18201 z"
       id="path2436"
       style="font-variant:normal;font-weight:normal;font-size:36px;font-family:Helvetica;-inkscape-font-specification:Helvetica;writing-mode:lr-tb;fill:#000000;fill-opacity:1;fill-rule:nonzero;stroke:none;stroke-width:0.922577"
       inkscape:export-xdpi="300"
       inkscape:export-ydpi="300" /><path
       d="m 529.583,691.29969 h 8.59632 v 2.51484 h -20.57363 v -2.51484 h 8.63229 v -19.84265 h 3.34502 z"
       id="path2438"
       style="font-variant:normal;font-weight:normal;font-size:36px;font-family:Helvetica;-inkscape-font-specification:Helvetica;writing-mode:lr-tb;fill:#000000;fill-opacity:1;fill-rule:nonzero;stroke:none;stroke-width:0.922577"
       inkscape:export-xdpi="300"
       inkscape:export-ydpi="300" /><path
       d="m 548.74782,729.48215 2.6976,-6.71644 h 3.74066 l -9.20779,22.35748 h -4.31614 l -9.35166,-22.35748 h 3.56082 l 2.76953,6.71644 z m -0.93516,2.39216 h -8.34456 l 4.31615,10.18201 z"
       id="path2440"
       style="font-variant:normal;font-weight:normal;font-size:36px;font-family:Helvetica;-inkscape-font-specification:Helvetica;writing-mode:lr-tb;fill:#000000;fill-opacity:1;fill-rule:nonzero;stroke:none;stroke-width:0.922577"
       inkscape:export-xdpi="300"
       inkscape:export-ydpi="300" /><path
       d="m 598.04,776.14308 c -1.04307,4.90699 -4.35211,7.29915 -10.10698,7.29915 -3.52485,0 -6.36632,-0.95073 -8.30858,-2.79085 -2.37388,-2.20815 -3.66873,-5.39769 -3.66873,-9.0166 0,-3.68024 1.33081,-6.83912 3.77663,-9.0166 2.05017,-1.77878 4.63986,-2.60684 8.05681,-2.60684 6.40229,0 9.99908,2.9442 10.79037,8.86326 h -3.45292 c -0.28774,-1.53344 -0.64742,-2.57617 -1.18694,-3.46557 -1.07904,-1.84012 -3.30905,-2.88286 -6.11454,-2.88286 -5.21535,0 -8.52439,3.55757 -8.52439,9.13928 0,5.73505 3.1292,9.26195 8.23664,9.26195 2.12211,0 4.10035,-0.52137 5.17938,-1.41076 0.97114,-0.76672 1.51065,-1.68678 1.9063,-3.37356 z"
       id="path2442"
       style="font-variant:normal;font-weight:normal;font-size:36px;font-family:Helvetica;-inkscape-font-specification:Helvetica;writing-mode:lr-tb;fill:#000000;fill-opacity:1;fill-rule:nonzero;stroke:none;stroke-width:0.922577"
       inkscape:export-xdpi="300"
       inkscape:export-ydpi="300" /><path
       d="m 647.92739,792.20826 h 8.59633 v 2.51483 h -20.57364 v -2.51483 h 8.63229 v -19.84265 h 3.34502 z"
       id="path2444"
       style="font-variant:normal;font-weight:normal;font-size:36px;font-family:Helvetica;-inkscape-font-specification:Helvetica;writing-mode:lr-tb;fill:#000000;fill-opacity:1;fill-rule:nonzero;stroke:none;stroke-width:0.922577"
       inkscape:export-xdpi="300"
       inkscape:export-ydpi="300" /><path
       d="m 716.37421,776.14308 c -1.04307,4.90699 -4.35211,7.29915 -10.10698,7.29915 -3.52485,0 -6.36631,-0.95073 -8.30858,-2.79085 -2.37388,-2.20815 -3.66873,-5.39769 -3.66873,-9.0166 0,-3.68024 1.33082,-6.83912 3.77663,-9.0166 2.05017,-1.77878 4.63986,-2.60684 8.05681,-2.60684 6.40229,0 9.99908,2.9442 10.79037,8.86326 h -3.45292 c -0.28774,-1.53344 -0.64742,-2.57617 -1.18694,-3.46557 -1.07903,-1.84012 -3.30904,-2.88286 -6.11454,-2.88286 -5.21535,0 -8.52439,3.55757 -8.52439,9.13928 0,5.73505 3.1292,9.26195 8.23665,9.26195 2.1221,0 4.10034,-0.52137 5.17937,-1.41076 0.97114,-0.76672 1.51066,-1.68678 1.9063,-3.37356 z"
       id="path2446"
       style="font-variant:normal;font-weight:normal;font-size:36px;font-family:Helvetica;-inkscape-font-specification:Helvetica;writing-mode:lr-tb;fill:#000000;fill-opacity:1;fill-rule:nonzero;stroke:none;stroke-width:0.922577"
       inkscape:export-xdpi="300"
       inkscape:export-ydpi="300" /><path
       d="m 753.72505,729.48215 2.69759,-6.71644 h 3.74066 l -9.20778,22.35748 h -4.31615 l -9.35165,-22.35748 h 3.56082 l 2.76953,6.71644 z m -0.93517,2.39216 h -8.34455 l 4.31615,10.18201 z"
       id="path2448"
       style="font-variant:normal;font-weight:normal;font-size:36px;font-family:Helvetica;-inkscape-font-specification:Helvetica;writing-mode:lr-tb;fill:#000000;fill-opacity:1;fill-rule:nonzero;stroke:none;stroke-width:0.922577"
       inkscape:export-xdpi="300"
       inkscape:export-ydpi="300" /><path
       d="m 775.5515,688.75419 c -1.04307,4.90699 -4.35212,7.29915 -10.10698,7.29915 -3.52485,0 -6.36632,-0.95073 -8.30858,-2.79085 -2.37389,-2.20815 -3.66873,-5.39769 -3.66873,-9.0166 0,-3.68024 1.33081,-6.83912 3.77663,-9.0166 2.05017,-1.77878 4.63986,-2.60684 8.05681,-2.60684 6.40229,0 9.99908,2.9442 10.79037,8.86326 h -3.45292 c -0.28774,-1.53344 -0.64742,-2.57617 -1.18694,-3.46557 -1.07904,-1.84012 -3.30905,-2.88285 -6.11454,-2.88285 -5.21535,0 -8.5244,3.55757 -8.5244,9.13927 0,5.73505 3.12921,9.26195 8.23665,9.26195 2.12211,0 4.10034,-0.52137 5.17938,-1.41076 0.97113,-0.76672 1.51065,-1.68678 1.9063,-3.37356 z"
       id="path2450"
       style="font-variant:normal;font-weight:normal;font-size:36px;font-family:Helvetica;-inkscape-font-specification:Helvetica;writing-mode:lr-tb;fill:#000000;fill-opacity:1;fill-rule:nonzero;stroke:none;stroke-width:0.922577"
       inkscape:export-xdpi="300"
       inkscape:export-ydpi="300" /><path
       d="m 759.69572,638.3043 c -1.04307,4.90699 -4.35212,7.29915 -10.10698,7.29915 -3.52485,0 -6.36632,-0.95073 -8.30858,-2.79085 -2.37389,-2.20815 -3.66873,-5.39769 -3.66873,-9.0166 0,-3.68024 1.33081,-6.83912 3.77663,-9.0166 2.05017,-1.77878 4.63986,-2.60684 8.05681,-2.60684 6.40229,0 9.99908,2.9442 10.79037,8.86326 h -3.45292 c -0.28774,-1.53344 -0.64742,-2.57617 -1.18694,-3.46557 -1.07904,-1.84012 -3.30905,-2.88286 -6.11454,-2.88286 -5.21535,0 -8.5244,3.55757 -8.5244,9.13928 0,5.73505 3.12921,9.26195 8.23665,9.26195 2.12211,0 4.10034,-0.52137 5.17938,-1.41076 0.97113,-0.76672 1.51065,-1.68678 1.9063,-3.37356 z"
       id="path2452"
       style="font-variant:normal;font-weight:normal;font-size:36px;font-family:Helvetica;-inkscape-font-specification:Helvetica;writing-mode:lr-tb;fill:#000000;fill-opacity:1;fill-rule:nonzero;stroke:none;stroke-width:0.922577"
       inkscape:export-xdpi="300"
       inkscape:export-ydpi="300" /><path
       d="m 689.17857,593.29786 c -1.04306,4.90699 -4.35211,7.29915 -10.10698,7.29915 -3.52485,0 -6.36631,-0.95073 -8.30858,-2.79085 -2.37388,-2.20815 -3.66873,-5.3977 -3.66873,-9.0166 0,-3.68025 1.33082,-6.83912 3.77663,-9.0166 2.05017,-1.77879 4.63986,-2.60684 8.05681,-2.60684 6.40229,0 9.99908,2.94419 10.79037,8.86325 h -3.45292 c -0.28774,-1.53343 -0.64742,-2.57617 -1.18694,-3.46556 -1.07903,-1.84012 -3.30904,-2.88286 -6.11454,-2.88286 -5.21534,0 -8.52439,3.55757 -8.52439,9.13928 0,5.73504 3.12921,9.26194 8.23665,9.26194 2.1221,0 4.10034,-0.52136 5.17938,-1.41076 0.97113,-0.76671 1.51065,-1.68678 1.90629,-3.37355 z"
       id="path2454"
       style="font-variant:normal;font-weight:normal;font-size:36px;font-family:Helvetica;-inkscape-font-specification:Helvetica;writing-mode:lr-tb;fill:#000000;fill-opacity:1;fill-rule:nonzero;stroke:none;stroke-width:0.922577"
       inkscape:export-xdpi="300"
       inkscape:export-ydpi="300" /><path
       d="m 690.36552,535.58619 h -10.93425 v -2.51483 h 7.98488 v -0.61337 c 0,-3.98693 -3.45292,-6.86979 -8.23665,-6.86979 -2.66163,0 -5.07148,0.82805 -6.6181,2.26948 -1.72645,1.59477 -2.76952,4.26295 -2.76952,7.02313 0,5.4897 3.66872,9.10861 9.20778,9.10861 3.99244,0 6.86987,-1.74812 7.58923,-4.63097 h 3.41695 c -0.93517,4.53896 -4.96357,7.1458 -10.97021,7.1458 -3.20115,0 -5.79084,-0.70538 -7.84101,-2.14681 -3.05727,-2.1468 -4.74776,-5.61237 -4.74776,-9.62997 0,-6.86979 4.9276,-11.65411 12.01328,-11.65411 3.56082,0 6.36632,1.13475 8.95601,3.55757 l 0.82726,-2.97486 h 2.12211 z"
       id="path2456"
       style="font-variant:normal;font-weight:normal;font-size:36px;font-family:Helvetica;-inkscape-font-specification:Helvetica;writing-mode:lr-tb;fill:#000000;fill-opacity:1;fill-rule:nonzero;stroke:none;stroke-width:0.922577"
       inkscape:export-xdpi="300"
       inkscape:export-ydpi="300" /><path
       d="m 753.12151,538.77574 c -1.04307,4.90699 -4.35212,7.29915 -10.10698,7.29915 -3.52486,0 -6.36632,-0.95073 -8.30859,-2.79085 -2.37388,-2.20815 -3.66872,-5.39769 -3.66872,-9.0166 0,-3.68024 1.33081,-6.83912 3.77663,-9.0166 2.05017,-1.77878 4.63986,-2.60684 8.05681,-2.60684 6.40228,0 9.99907,2.9442 10.79037,8.86326 h -3.45292 c -0.28775,-1.53344 -0.64742,-2.57617 -1.18694,-3.46557 -1.07904,-1.84012 -3.30905,-2.88285 -6.11455,-2.88285 -5.21534,0 -8.52439,3.55757 -8.52439,9.13927 0,5.73505 3.12921,9.26195 8.23665,9.26195 2.12211,0 4.10034,-0.52137 5.17938,-1.41076 0.97113,-0.76672 1.51065,-1.68678 1.9063,-3.37356 z"
       id="path2458"
       style="font-variant:normal;font-weight:normal;font-size:36px;font-family:Helvetica;-inkscape-font-specification:Helvetica;writing-mode:lr-tb;fill:#000000;fill-opacity:1;fill-rule:nonzero;stroke:none;stroke-width:0.922577"
       inkscape:export-xdpi="300"
       inkscape:export-ydpi="300" /><path
       d="m 817.06444,538.77574 c -1.04307,4.90699 -4.35211,7.29915 -10.10698,7.29915 -3.52485,0 -6.36632,-0.95073 -8.30858,-2.79085 -2.37388,-2.20815 -3.66873,-5.39769 -3.66873,-9.0166 0,-3.68024 1.33081,-6.83912 3.77663,-9.0166 2.05017,-1.77878 4.63986,-2.60684 8.05681,-2.60684 6.40229,0 9.99908,2.9442 10.79037,8.86326 h -3.45292 c -0.28774,-1.53344 -0.64742,-2.57617 -1.18694,-3.46557 -1.07904,-1.84012 -3.30905,-2.88285 -6.11454,-2.88285 -5.21535,0 -8.52439,3.55757 -8.52439,9.13927 0,5.73505 3.1292,9.26195 8.23664,9.26195 2.12211,0 4.10035,-0.52137 5.17938,-1.41076 0.97114,-0.76672 1.51065,-1.68678 1.9063,-3.37356 z"
       id="path2460"
       style="font-variant:normal;font-weight:normal;font-size:36px;font-family:Helvetica;-inkscape-font-specification:Helvetica;writing-mode:lr-tb;fill:#000000;fill-opacity:1;fill-rule:nonzero;stroke:none;stroke-width:0.922577"
       inkscape:export-xdpi="300"
       inkscape:export-ydpi="300" /><path
       d="m 871.72766,541.32124 h 8.59633 v 2.51484 h -20.57364 v -2.51484 h 8.63229 v -19.84265 h 3.34502 z"
       id="path2462"
       style="font-variant:normal;font-weight:normal;font-size:36px;font-family:Helvetica;-inkscape-font-specification:Helvetica;writing-mode:lr-tb;fill:#000000;fill-opacity:1;fill-rule:nonzero;stroke:none;stroke-width:0.922577"
       inkscape:export-xdpi="300"
       inkscape:export-ydpi="300" /><path
       d="m 946.13725,535.58619 h -10.93424 v -2.51483 h 7.98487 v -0.61337 c 0,-3.98693 -3.45292,-6.86979 -8.23665,-6.86979 -2.66162,0 -5.07147,0.82805 -6.61809,2.26948 -1.72646,1.59477 -2.76953,4.26295 -2.76953,7.02313 0,5.4897 3.66873,9.10861 9.20778,9.10861 3.99244,0 6.86987,-1.74812 7.58923,-4.63097 h 3.41695 c -0.93516,4.53896 -4.96357,7.1458 -10.97021,7.1458 -3.20114,0 -5.79083,-0.70538 -7.841,-2.14681 -3.05727,-2.1468 -4.74776,-5.61237 -4.74776,-9.62997 0,-6.86979 4.9276,-11.65411 12.01328,-11.65411 3.56082,0 6.36631,1.13475 8.956,3.55757 l 0.82726,-2.97486 h 2.12211 z"
       id="path2464"
       style="font-variant:normal;font-weight:normal;font-size:36px;font-family:Helvetica;-inkscape-font-specification:Helvetica;writing-mode:lr-tb;fill:#000000;fill-opacity:1;fill-rule:nonzero;stroke:none;stroke-width:0.922577"
       inkscape:export-xdpi="300"
       inkscape:export-ydpi="300" /><path
       d="m 1002.9226,529.05376 2.6976,-6.71645 h 3.7406 l -9.2078,22.35749 h -4.3161 l -9.35166,-22.35749 h 3.56082 l 2.76953,6.71645 z m -0.9352,2.39216 h -8.34455 l 4.31615,10.18201 z"
       id="path2466"
       style="font-variant:normal;font-weight:normal;font-size:36px;font-family:Helvetica;-inkscape-font-specification:Helvetica;writing-mode:lr-tb;fill:#000000;fill-opacity:1;fill-rule:nonzero;stroke:none;stroke-width:0.922577"
       inkscape:export-xdpi="300"
       inkscape:export-ydpi="300" /><path
       d="m 1063.5565,541.32124 h 8.5963 v 2.51484 h -20.5736 v -2.51484 h 8.6323 v -19.84265 h 3.345 z"
       id="path2468"
       style="font-variant:normal;font-weight:normal;font-size:36px;font-family:Helvetica;-inkscape-font-specification:Helvetica;writing-mode:lr-tb;fill:#000000;fill-opacity:1;fill-rule:nonzero;stroke:none;stroke-width:0.922577"
       inkscape:export-xdpi="300"
       inkscape:export-ydpi="300" /><g
       id="g1296"
       transform="matrix(0.99910834,0,0,0.85190846,-352.32495,-564.94741)"
       inkscape:export-xdpi="300"
       inkscape:export-ydpi="300"><text
         transform="matrix(1,0,0,-1,254.75,1176)"
         style="font-variant:normal;font-weight:normal;font-size:30px;font-family:Helvetica;-inkscape-font-specification:Helvetica;writing-mode:lr-tb;fill:#242424;fill-opacity:1;fill-rule:nonzero;stroke:none"
         id="text1300"><tspan
           x="0 16.68"
           y="0"
           sodipodi:role="line"
           id="tspan1298">5’</tspan></text></g><path
       d="M -87.985861,519.83448 V 482.35051"
       style="fill:none;stroke:#242424;stroke-width:0.461289;stroke-linecap:butt;stroke-linejoin:miter;stroke-miterlimit:10;stroke-dasharray:none;stroke-opacity:1"
       id="path1302"
       inkscape:export-xdpi="300"
       inkscape:export-ydpi="300" /><path
       d="M 1062.987,519.83448 V 482.35051"
       style="fill:none;stroke:#242424;stroke-width:0.461289;stroke-linecap:butt;stroke-linejoin:miter;stroke-miterlimit:10;stroke-dasharray:none;stroke-opacity:1"
       id="path1310"
       inkscape:export-xdpi="300"
       inkscape:export-ydpi="300" /><g
       id="g1312"
       transform="matrix(0.99910834,0,0,0.85190846,211.02229,-63.744109)"
       inkscape:export-xdpi="300"
       inkscape:export-ydpi="300"><text
         transform="matrix(1,0,0,-1,260.75,600)"
         style="font-variant:normal;font-weight:normal;font-size:30px;font-family:Helvetica;-inkscape-font-specification:Helvetica;writing-mode:lr-tb;fill:#242424;fill-opacity:1;fill-rule:nonzero;stroke:none"
         id="text1316"><tspan
           x="0 16.68"
           y="0"
           sodipodi:role="line"
           id="tspan1314">10</tspan></text></g><path
       d="M 487.50054,519.83448 V 482.35051"
       style="fill:none;stroke:#242424;stroke-width:0.461289;stroke-linecap:butt;stroke-linejoin:miter;stroke-miterlimit:10;stroke-dasharray:none;stroke-opacity:1"
       id="path1318"
       inkscape:export-xdpi="300"
       inkscape:export-ydpi="300" /><g
       id="g1320"
       transform="matrix(0.99910834,0,0,0.85190846,182.11808,549.92815)"
       inkscape:export-xdpi="300"
       inkscape:export-ydpi="300"><text
         transform="matrix(1,0,0,-1,636.41,254.29)"
         style="font-variant:normal;font-weight:normal;font-size:30px;font-family:Helvetica;-inkscape-font-specification:Helvetica;writing-mode:lr-tb;fill:#242424;fill-opacity:1;fill-rule:nonzero;stroke:none"
         id="text1324"><tspan
           x="0 16.68"
           y="0"
           sodipodi:role="line"
           id="tspan1322">20</tspan></text></g><path
       d="m 763.68406,740.70879 38.07602,18.74199"
       style="fill:none;stroke:#242424;stroke-width:0.461289;stroke-linecap:butt;stroke-linejoin:miter;stroke-miterlimit:10;stroke-dasharray:none;stroke-opacity:1"
       id="path1326"
       inkscape:export-xdpi="300"
       inkscape:export-ydpi="300" /><g
       id="g1328"
       transform="matrix(0.99910834,0,0,0.85190846,798.69282,416.4128)"
       inkscape:export-xdpi="300"
       inkscape:export-ydpi="300"><text
         transform="matrix(1,0,0,-1,254.75,24)"
         style="font-variant:normal;font-weight:normal;font-size:30px;font-family:Helvetica;-inkscape-font-specification:Helvetica;writing-mode:lr-tb;fill:#242424;fill-opacity:1;fill-rule:nonzero;stroke:none"
         id="text1332"><tspan
           x="0 16.68"
           y="0"
           sodipodi:role="line"
           id="tspan1330">3’</tspan></text></g><path
       d="M 1062.987,519.83448 V 482.35051"
       style="fill:none;stroke:#242424;stroke-width:0.461289;stroke-linecap:butt;stroke-linejoin:miter;stroke-miterlimit:10;stroke-dasharray:none;stroke-opacity:1"
       id="path1334"
       inkscape:export-xdpi="300"
       inkscape:export-ydpi="300" /></g></svg>
